<svg xmlns="http://www.w3.org/2000/svg" width="800" height="500" viewBox="0 0 800 500">
  <rect width="800" height="500" fill="#0e141b"/>
  <rect x="0" y="0" width="800" height="30" fill="#10171f"/>
  <circle cx="18" cy="15" r="5" fill="#ff5f57"/><circle cx="34" cy="15" r="5" fill="#febc2e"/><circle cx="50" cy="15" r="5" fill="#28c840"/>
  <rect x="70" y="10" width="300" height="10" rx="2" fill="#2a3540"/>
  <rect x="60" y="60" width="160" height="24" rx="4" fill="#60a5fa" opacity="0.95"/>
  <rect x="90" y="120" width="224" height="16" rx="3" fill="#60a5fa" opacity="0.9"/><rect x="90" y="172" width="81" height="16" rx="3" fill="#487bbb" opacity="0.9"/><rect x="90" y="224" width="118" height="16" rx="3" fill="#60a5fa" opacity="0.9"/><rect x="90" y="276" width="155" height="16" rx="3" fill="#487bbb" opacity="0.9"/><rect x="90" y="328" width="192" height="16" rx="3" fill="#60a5fa" opacity="0.9"/>
  <rect x="90" y="330" width="184" height="34" rx="6" fill="#161d26" stroke="#2a3540" stroke-width="1.2"/><rect x="100" y="340" width="78" height="8" rx="2" fill="#487bbb" opacity="0.55"/><rect x="100" y="390" width="243" height="41" rx="6" fill="#161d26" stroke="#2a3540" stroke-width="1.2"/><rect x="110" y="400" width="51" height="8" rx="2" fill="#60a5fa" opacity="0.55"/><rect x="110" y="450" width="182" height="48" rx="6" fill="#161d26" stroke="#2a3540" stroke-width="1.2"/><rect x="120" y="460" width="64" height="8" rx="2" fill="#487bbb" opacity="0.55"/><rect x="120" y="510" width="241" height="55" rx="6" fill="#161d26" stroke="#2a3540" stroke-width="1.2"/><rect x="130" y="520" width="77" height="8" rx="2" fill="#60a5fa" opacity="0.55"/>
</svg>
